<svg width="538" height="538" viewBox="0 0 538 538" fill="none" xmlns="http://www.w3.org/2000/svg">
<path d="M297.3 466.996C296.957 466.996 296.613 466.905 296.305 466.727L129.579 368.649C129.106 368.372 128.773 367.91 128.658 367.374C128.542 366.838 128.654 366.281 128.969 365.833L263.254 175.004C263.878 174.118 265.1 173.904 265.986 174.528C266.872 175.151 267.086 176.374 266.463 177.26L133.406 366.349L295.515 461.71L300.779 364.287C300.839 363.204 301.749 362.385 302.842 362.434C303.924 362.493 304.751 363.418 304.695 364.497L299.255 465.139C299.217 465.822 298.828 466.438 298.222 466.761C297.935 466.918 297.616 466.995 297.298 466.995L297.3 466.996ZM304.33 336.98C304.294 336.98 304.259 336.98 304.221 336.976C303.139 336.916 302.312 335.992 302.368 334.913L314.585 108.89L283.395 153.212C282.771 154.099 281.549 154.312 280.663 153.689C279.776 153.065 279.563 151.843 280.186 150.957L315.31 101.048C315.815 100.334 316.729 100.036 317.556 100.323C318.382 100.61 318.918 101.409 318.873 102.281L306.284 335.128C306.228 336.171 305.363 336.98 304.33 336.98L304.33 336.98Z" fill="white"/>
<path d="M454.216 368.918H344.258C343.175 368.918 342.296 368.039 342.296 366.957C342.296 365.874 343.175 364.995 344.258 364.995H451.122L374.751 202.708L156.234 285.594C155.218 285.979 154.087 285.468 153.705 284.455C153.32 283.443 153.831 282.308 154.843 281.926L375.065 198.397C376.021 198.036 377.096 198.467 377.534 199.395L455.992 366.121C456.28 366.727 456.234 367.442 455.873 368.009C455.516 368.576 454.892 368.92 454.22 368.92L454.216 368.918ZM314.838 368.918H130.573C129.918 368.918 129.305 368.589 128.941 368.046L89.7117 309.202C89.3789 308.705 89.2949 308.085 89.477 307.514C89.6591 306.947 90.0899 306.491 90.6504 306.278L127.337 292.361C128.352 291.976 129.484 292.487 129.865 293.5C130.251 294.512 129.739 295.647 128.727 296.029L94.3418 309.069L131.623 364.995H314.839C315.922 364.995 316.801 365.874 316.801 366.956C316.797 368.038 315.918 368.918 314.836 368.918L314.838 368.918Z" fill="white"/>
<path d="M91.3462 310.079C90.8838 310.079 90.425 309.915 90.0607 309.6C89.5143 309.13 89.2726 308.395 89.4302 307.691L128.659 131.155C128.775 130.63 129.104 130.174 129.567 129.898C130.029 129.621 130.586 129.547 131.101 129.691L220.032 154.591C221.076 154.882 221.685 155.964 221.391 157.008C221.1 158.052 220.014 158.661 218.974 158.367L132.036 134.024L94.0435 304.983L196.658 266.062C197.67 265.677 198.805 266.188 199.187 267.2C199.572 268.213 199.061 269.348 198.049 269.729L92.0446 309.947C91.817 310.031 91.5823 310.073 91.3476 310.073L91.3462 310.079ZM224.869 259.436C224.077 259.436 223.331 258.952 223.033 258.171C222.648 257.159 223.159 256.024 224.172 255.642L369.486 200.522L247.315 166.312C246.271 166.021 245.661 164.939 245.956 163.895C246.246 162.851 247.329 162.242 248.372 162.536L376.291 198.353C377.107 198.581 377.685 199.306 377.724 200.154C377.762 201.001 377.251 201.776 376.459 202.077L225.568 259.313C225.333 259.393 225.095 259.435 224.867 259.435L224.869 259.436Z" fill="white"/>
<path d="M444.408 476.805C432.509 476.805 422.832 467.128 422.832 455.23C422.832 443.332 432.51 433.654 444.408 433.654C456.306 433.654 465.983 443.332 465.983 455.23C465.983 467.128 456.306 476.805 444.408 476.805ZM444.408 437.576C434.674 437.576 426.754 445.496 426.754 455.23C426.754 464.964 434.673 472.883 444.408 472.883C454.142 472.883 462.061 464.964 462.061 455.23C462.061 445.496 454.142 437.576 444.408 437.576Z" fill="white"/>
<path d="M209.033 104.124C197.134 104.124 187.457 94.4461 187.457 82.5483C187.457 70.6504 197.135 60.9727 209.033 60.9727C220.931 60.9727 230.608 70.6504 230.608 82.5483C230.608 94.4461 220.931 104.124 209.033 104.124ZM209.033 64.8947C199.299 64.8947 191.379 72.814 191.379 82.5483C191.379 92.2825 199.298 100.202 209.033 100.202C218.767 100.202 226.686 92.2825 226.686 82.5483C226.686 72.814 218.767 64.8947 209.033 64.8947Z" fill="white"/>
<path d="M395.368 339.499C394.849 339.499 394.348 339.282 393.974 338.921C393.609 338.557 393.406 338.049 393.406 337.537C393.406 337.016 393.613 336.508 393.974 336.143C394.709 335.418 396.023 335.418 396.748 336.143C397.119 336.515 397.326 337.016 397.326 337.537C397.326 338.049 397.119 338.557 396.748 338.921C396.387 339.282 395.886 339.499 395.368 339.499Z" fill="white"/>
<path d="M365.95 339.499C365.431 339.499 364.931 339.282 364.566 338.921C364.195 338.557 363.988 338.049 363.988 337.537C363.988 337.016 364.195 336.508 364.566 336.143C365.281 335.418 366.605 335.418 367.333 336.143C367.705 336.515 367.911 337.016 367.911 337.537C367.911 338.049 367.705 338.557 367.344 338.921C366.969 339.282 366.468 339.499 365.95 339.499H365.95Z" fill="white"/>
<path d="M336.528 339.499C336.009 339.499 335.509 339.282 335.134 338.921C334.77 338.557 334.566 338.049 334.566 337.537C334.566 337.016 334.773 336.518 335.134 336.143C335.869 335.418 337.183 335.418 337.908 336.143C338.279 336.515 338.486 337.016 338.486 337.537C338.486 338.049 338.279 338.557 337.918 338.921C337.547 339.282 337.046 339.499 336.528 339.499H336.528Z" fill="white"/>
<path d="M336.528 310.079C336.016 310.079 335.509 309.862 335.134 309.501C334.77 309.137 334.566 308.629 334.566 308.118C334.566 307.596 334.773 307.098 335.134 306.723C335.869 305.998 337.183 305.998 337.908 306.723C338.279 307.095 338.486 307.596 338.486 308.118C338.486 308.629 338.279 309.137 337.908 309.501C337.547 309.862 337.039 310.079 336.528 310.079Z" fill="white"/>
<path d="M336.528 280.659C336.01 280.659 335.509 280.442 335.144 280.081C334.773 279.717 334.566 279.209 334.566 278.698C334.566 278.176 334.773 277.678 335.134 277.304C335.869 276.579 337.183 276.579 337.908 277.304C338.279 277.675 338.486 278.176 338.486 278.698C338.486 279.209 338.279 279.717 337.918 280.081C337.547 280.442 337.046 280.659 336.528 280.659Z" fill="white"/>
<path d="M71.7344 445.422H91.349V465.036H71.7344V445.422Z" fill="white"/>
<path d="M101.152 445.422H120.767V465.036H101.152V445.422Z" fill="white"/>
<path d="M130.574 445.422H150.189V465.036H130.574V445.422Z" fill="white"/>
<path d="M159.992 445.422H179.607V465.036H159.992V445.422Z" fill="white"/>
</svg>
